{"glyphs":{"0":{"ha":814,"x_min":51,"x_max":766,"o":"m 406 -14 q 143 118 235 -14 q 51 453 51 250 q 148 806 51 673 q 407 940 244 940 q 605 877 524 940 q 726 703 686 814 q 766 494 766 591 q 728 225 766 330 q 610 53 691 121 q 406 -14 528 -14 m 405 117 q 519 160 475 117 q 578 281 562 203 q 593 497 593 359 q 555 713 593 611 q 408 816 517 816 q 220 467 220 816 q 260 213 220 309 q 405 117 300 117 z "},"1":{"ha":814,"x_min":121,"x_max":542,"o":"m 374 0 l 374 721 l 121 554 l 121 721 q 431 945 408 903 l 542 945 l 542 0 l 374 0 z "},"2":{"ha":814,"x_min":58,"x_max":743,"o":"m 741 144 l 741 0 l 58 0 l 58 162 l 342 351 q 519 507 474 439 q 565 632 565 575 q 519 747 565 701 q 401 794 474 794 q 218 600 243 794 l 58 600 q 168 852 77 764 q 407 940 259 940 q 652 853 560 940 q 743 631 743 766 q 662 419 743 513 q 258 144 581 326 l 741 144 z "},"3":{"ha":814,"x_min":35,"x_max":750,"o":"m 292 409 l 292 541 l 377 541 q 504 574 453 541 q 555 675 555 608 q 512 774 555 741 q 401 808 469 808 q 215 673 264 808 l 62 673 q 181 873 87 806 q 406 940 274 940 q 629 872 536 940 q 722 692 722 805 q 672 548 722 608 q 549 483 622 488 q 695 408 640 469 q 750 259 750 346 q 654 63 750 140 q 399 -14 558 -14 q 156 61 252 -14 q 35 273 60 136 l 191 273 q 397 117 240 117 q 529 158 479 117 q 578 259 578 200 q 535 364 578 319 q 406 409 492 409 l 292 409 z "},"4":{"ha":814,"x_min":47,"x_max":768,"o":"m 629 0 l 458 0 l 458 210 l 47 210 l 47 332 l 458 945 l 629 945 l 629 353 l 768 353 l 768 210 l 629 210 l 629 0 m 485 736 l 235 353 l 485 353 l 485 736 z "},"5":{"ha":814,"x_min":54,"x_max":779,"o":"m 147 926 l 723 926 l 708 783 l 269 783 l 250 589 q 461 661 327 661 q 687 545 595 654 q 779 309 779 436 q 682 81 779 177 q 418 -14 586 -14 q 184 47 284 -14 q 54 260 84 109 l 214 260 q 409 121 261 121 q 549 176 500 121 q 598 309 598 231 q 549 440 598 387 q 422 493 500 493 q 244 401 304 493 l 94 401 l 147 926 z "},"6":{"ha":814,"x_min":54,"x_max":768,"o":"m 737 694 l 596 694 q 433 818 557 818 q 268 716 315 818 q 221 562 221 614 q 222 517 221 539 q 460 602 291 608 q 680 511 592 595 q 768 301 768 428 q 674 76 768 167 q 437 -14 580 -14 q 156 112 258 -14 q 54 456 54 237 q 154 806 54 671 q 422 940 254 940 q 737 694 675 940 m 431 109 q 556 154 505 109 q 608 292 608 199 q 559 410 608 355 q 425 465 511 465 q 298 412 346 465 q 250 284 250 360 q 299 158 250 208 q 431 109 349 109 z "},"7":{"ha":814,"x_min":71,"x_max":742,"o":"m 71 926 l 742 926 l 742 808 q 515 423 571 586 q 448 0 459 260 l 257 0 q 532 783 281 450 l 71 783 l 71 926 z "},"8":{"ha":814,"x_min":39,"x_max":776,"o":"m 235 457 q 73 679 73 532 q 162 866 73 793 q 414 940 252 940 q 650 874 561 940 q 739 700 739 808 q 574 499 739 568 q 776 256 776 413 q 675 62 776 139 q 404 -14 574 -14 q 131 57 223 -14 q 39 235 39 127 q 235 457 39 387 m 398 547 q 587 694 567 600 q 535 790 587 756 q 414 824 483 824 q 292 793 343 824 q 234 705 241 763 q 273 612 234 644 q 398 547 311 581 m 398 363 q 273 298 311 330 q 234 205 234 266 q 292 117 241 147 q 414 86 343 86 q 535 120 483 86 q 587 216 587 154 q 398 363 567 310 z "},"9":{"ha":814,"x_min":54,"x_max":768,"o":"m 85 231 l 226 231 q 389 107 265 107 q 554 209 507 107 q 601 363 601 311 q 600 408 601 386 q 361 323 531 317 q 142 414 230 330 q 54 624 54 497 q 148 849 54 758 q 385 939 242 939 q 666 813 564 939 q 768 469 768 688 q 668 119 768 254 q 399 -15 568 -15 q 85 231 146 -15 m 391 817 q 266 771 317 817 q 214 633 214 726 q 263 515 214 570 q 397 460 311 460 q 524 513 476 460 q 572 641 572 565 q 523 767 572 718 q 391 817 473 817 z "}," ":{"ha":347,"x_min":0,"x_max":0,"o":""},"!":{"ha":382,"x_min":106,"x_max":275,"o":"m 275 170 l 275 0 l 106 0 l 106 170 l 275 170 m 275 928 l 275 278 l 106 278 l 106 928 l 275 928 z "},"\"":{"ha":526,"x_min":73,"x_max":462,"o":"m 224 554 l 73 554 l 73 926 l 224 926 l 224 554 m 224 554 l 73 554 l 73 926 l 224 926 l 224 554 m 462 554 l 310 554 l 310 926 l 462 926 l 462 554 z "},"#":{"ha":814,"x_min":67,"x_max":743,"o":"m 743 674 l 743 543 l 608 543 l 608 401 l 743 401 l 743 271 l 608 271 l 608 0 l 481 0 l 481 271 l 334 271 l 334 0 l 207 0 l 207 272 l 68 272 l 67 401 l 208 401 l 209 543 l 68 543 l 68 674 l 208 674 l 208 926 l 334 926 l 334 674 l 480 674 l 479 926 l 606 926 l 606 674 l 743 674 m 481 543 l 334 543 l 334 401 l 480 401 l 481 543 z "},"$":{"ha":814,"x_min":32,"x_max":746,"o":"m 447 -119 l 355 -119 l 355 7 q 32 272 103 28 l 178 272 q 355 131 218 142 l 355 399 q 121 504 176 440 q 67 655 67 567 q 355 919 67 884 l 355 1017 l 447 1017 l 447 919 q 713 690 658 892 l 576 690 q 447 794 541 786 l 447 557 q 626 499 580 519 q 709 420 672 479 q 746 281 746 361 q 669 94 746 169 q 447 7 593 20 l 447 -119 m 355 794 q 257 765 296 793 q 217 680 217 736 q 355 566 217 585 l 355 794 m 447 131 q 554 168 511 132 q 597 264 597 205 q 447 391 597 363 l 447 131 z "},"%":{"ha":1072,"x_min":44,"x_max":1027,"o":"m 259 418 q 103 495 161 418 q 44 681 44 571 q 103 862 44 789 q 261 935 162 935 q 425 858 372 935 q 478 683 478 781 q 414 490 478 561 q 259 418 351 418 m 260 519 q 353 682 353 519 q 263 836 353 836 q 172 682 172 836 q 260 519 172 519 m 874 926 l 301 0 l 199 0 l 774 926 l 874 926 m 806 -8 q 655 63 715 -8 q 595 241 595 134 q 662 437 595 366 q 815 509 728 509 q 962 442 897 509 q 1027 241 1027 376 q 965 60 1027 129 q 806 -8 902 -8 m 812 90 q 882 137 860 90 q 904 243 904 183 q 883 369 904 331 q 817 406 861 406 q 721 248 721 406 q 812 90 721 90 z "},"&":{"ha":996,"x_min":44,"x_max":968,"o":"m 829 562 l 968 537 q 804 187 939 339 q 874 124 851 136 q 928 113 897 113 q 968 117 942 113 l 968 -13 l 904 -14 q 801 4 841 -14 q 696 85 760 22 q 394 -14 557 -14 q 141 70 239 -14 q 44 276 44 153 q 90 425 44 354 q 285 562 135 495 q 204 737 204 656 q 272 884 204 827 q 446 940 340 940 q 623 886 554 940 q 692 738 692 831 q 646 611 692 672 q 512 515 599 550 l 713 286 q 829 562 808 408 m 436 616 q 554 738 554 665 q 526 800 554 777 q 458 822 497 822 q 390 799 419 822 q 360 740 360 777 q 436 616 360 680 m 366 460 q 227 286 227 397 q 281 166 227 212 q 417 121 335 121 q 608 187 518 121 l 366 460 z "},"'":{"ha":297,"x_min":73,"x_max":224,"o":"m 201 554 l 95 554 l 73 926 l 224 926 l 201 554 z "},"(":{"ha":408,"x_min":45,"x_max":370,"o":"m 370 -231 l 278 -231 q 45 359 45 24 q 123 701 45 543 q 278 926 201 859 l 370 926 q 216 635 258 770 q 174 345 174 500 q 228 38 174 189 q 370 -231 281 -113 z "},")":{"ha":408,"x_min":37,"x_max":363,"o":"m 37 926 l 129 926 q 363 335 363 669 q 284 -7 363 151 q 129 -231 205 -165 l 37 -231 q 191 59 149 -77 q 233 349 233 194 q 37 926 233 661 z "},"*":{"ha":814,"x_min":116,"x_max":699,"o":"m 471 935 l 455 703 l 665 783 l 699 661 l 484 614 l 622 444 l 515 372 l 408 558 l 300 372 l 193 444 l 330 614 l 116 661 l 149 783 l 359 703 l 344 935 l 471 935 z "},"+":{"ha":814,"x_min":64,"x_max":751,"o":"m 751 532 l 751 403 l 472 403 l 472 115 l 343 115 l 343 403 l 64 403 l 64 532 l 343 532 l 343 821 l 472 821 l 472 532 l 751 532 z "},",":{"ha":334,"x_min":83,"x_max":252,"o":"m 252 173 l 252 18 l 142 -198 l 83 -198 l 163 0 l 83 0 l 83 173 l 252 173 z "},"-":{"ha":334,"x_min":-3,"x_max":337,"o":"m 337 416 l 337 289 l -3 289 l -3 416 l 337 416 z "},".":{"ha":334,"x_min":83,"x_max":251,"o":"m 251 178 l 251 0 l 83 0 l 83 178 l 251 178 z "},"/":{"ha":665,"x_min":-79,"x_max":623,"o":"m 623 926 l 18 -231 l -79 -231 l 524 926 l 623 926 z "},":":{"ha":334,"x_min":83,"x_max":251,"o":"m 251 640 l 251 471 l 83 471 l 83 640 l 251 640 m 251 170 l 251 0 l 83 0 l 83 170 l 251 170 z "},";":{"ha":334,"x_min":83,"x_max":252,"o":"m 252 640 l 252 471 l 83 471 l 83 640 l 252 640 m 252 173 l 252 18 l 142 -198 l 83 -198 l 83 173 l 252 173 z "},"<":{"ha":814,"x_min":93,"x_max":694,"o":"m 694 828 l 694 672 l 260 462 l 694 252 l 694 96 l 93 396 l 93 529 l 694 828 z "},"=":{"ha":814,"x_min":64,"x_max":751,"o":"m 751 627 l 751 497 l 64 497 l 64 627 l 751 627 m 751 424 l 751 294 l 64 294 l 64 424 l 751 424 z "},">":{"ha":814,"x_min":120,"x_max":722,"o":"m 120 96 l 120 252 l 555 463 l 121 673 l 120 828 l 722 528 l 722 395 l 120 96 z "},"?":{"ha":696,"x_min":23,"x_max":652,"o":"m 434 266 l 275 266 l 275 357 q 293 430 275 404 q 375 505 312 456 q 471 662 471 579 q 434 761 471 724 q 336 798 396 798 q 171 610 196 798 l 23 610 q 130 858 37 775 q 353 940 223 940 q 568 863 483 940 q 652 671 652 786 q 629 563 652 614 q 576 484 606 512 q 477 385 546 456 q 442 347 450 366 q 434 266 435 328 m 434 170 l 434 0 l 275 0 l 275 170 l 434 170 z "},"@":{"ha":996,"x_min":17,"x_max":979,"o":"m 745 706 l 707 390 q 703 326 703 357 q 736 281 703 281 q 836 352 788 281 q 884 526 884 424 q 778 765 884 673 q 520 857 671 857 q 241 743 354 857 q 128 462 128 629 q 234 191 128 306 q 532 76 340 76 q 837 156 682 76 l 877 64 q 532 -21 711 -21 q 156 122 296 -21 q 17 463 17 264 q 163 808 17 669 q 517 947 310 947 q 846 828 713 947 q 979 526 979 708 q 904 290 979 393 q 722 186 829 186 q 607 257 639 186 q 465 184 549 184 q 317 256 378 184 q 256 445 256 328 q 325 641 256 566 q 490 717 394 717 q 623 659 582 717 l 628 706 l 745 706 m 473 294 q 571 347 528 294 q 615 484 615 399 q 582 569 615 531 q 499 606 548 606 q 412 560 446 606 q 377 439 377 513 q 404 335 377 376 q 473 294 431 294 z "},"A":{"ha":838,"x_min":5,"x_max":828,"o":"m 828 0 l 650 0 l 576 220 l 220 220 l 147 0 l 5 0 l 312 926 l 517 926 l 828 0 m 531 354 l 396 767 l 261 354 l 531 354 z "},"B":{"ha":844,"x_min":102,"x_max":793,"o":"m 102 0 l 102 926 l 463 926 q 614 907 554 926 q 719 827 675 888 q 763 686 763 767 q 718 552 763 609 q 595 480 673 496 q 743 401 692 463 q 793 253 793 338 q 723 73 793 146 q 507 0 652 0 l 102 0 m 260 537 l 463 537 q 562 574 526 537 q 598 669 598 612 q 557 763 598 733 q 460 793 515 793 l 260 793 l 260 537 m 260 139 l 475 139 q 584 175 544 139 q 623 272 623 211 q 583 368 623 330 q 476 405 543 405 l 260 405 l 260 139 z "},"C":{"ha":804,"x_min":53,"x_max":774,"o":"m 612 321 l 774 321 q 666 76 759 165 q 423 -14 574 -14 q 217 50 296 -14 q 96 222 138 113 q 53 463 53 332 q 153 807 53 675 q 429 940 254 940 q 659 855 567 940 q 774 596 750 770 l 612 596 q 431 806 576 806 q 285 719 337 806 q 233 466 233 631 q 289 212 233 298 q 436 126 345 126 q 561 184 509 126 q 612 321 612 241 z "},"D":{"ha":909,"x_min":97,"x_max":857,"o":"m 97 0 l 97 926 l 438 926 q 742 792 627 926 q 857 461 857 658 q 739 132 857 264 q 401 0 621 0 l 97 0 m 269 136 l 408 136 q 597 220 519 136 q 675 471 675 304 q 607 700 675 606 q 427 794 539 794 l 269 794 l 269 136 z "},"E":{"ha":745,"x_min":102,"x_max":703,"o":"m 703 0 l 102 0 l 102 926 l 697 926 l 697 788 l 269 788 l 269 537 l 613 537 l 613 403 l 269 403 l 269 144 l 703 144 l 703 0 z "},"F":{"ha":705,"x_min":102,"x_max":687,"o":"m 273 0 l 102 0 l 102 926 l 687 926 l 687 783 l 273 783 l 273 530 l 599 530 l 599 391 l 273 391 l 273 0 z "},"G":{"ha":892,"x_min":54,"x_max":804,"o":"m 804 473 l 804 0 l 680 0 l 680 125 q 429 -14 599 -14 q 147 130 240 -14 q 54 463 54 273 q 158 801 54 663 q 449 940 262 940 q 679 859 589 940 q 793 637 769 778 l 648 637 q 453 801 607 801 q 293 721 355 801 q 231 475 231 641 q 450 124 231 124 q 592 183 536 124 q 648 339 648 242 l 456 339 l 456 473 l 804 473 z "},"H":{"ha":890,"x_min":102,"x_max":789,"o":"m 789 0 l 622 0 l 622 402 l 269 402 l 269 0 l 102 0 l 102 926 l 269 926 l 269 545 l 622 545 l 622 926 l 789 926 l 789 0 z "},"I":{"ha":370,"x_min":102,"x_max":269,"o":"m 269 0 l 102 0 l 102 926 l 269 926 l 269 0 z "},"J":{"ha":597,"x_min":0,"x_max":498,"o":"m 498 935 l 498 296 q 424 70 498 136 q 250 0 351 4 q 77 55 149 -5 q 0 241 6 115 l 172 241 q 190 176 172 201 q 242 151 209 151 q 300 179 275 151 q 326 296 326 207 l 326 935 l 498 935 z "},"K":{"ha":852,"x_min":102,"x_max":829,"o":"m 829 0 l 643 0 l 448 471 l 269 234 l 269 0 l 102 0 l 102 926 l 269 926 l 269 439 q 315 508 300 489 l 622 926 l 791 926 l 571 621 l 829 0 z "},"L":{"ha":692,"x_min":102,"x_max":671,"o":"m 671 0 l 102 0 l 102 926 l 277 926 l 277 151 l 671 151 l 671 0 z "},"M":{"ha":1112,"x_min":102,"x_max":1010,"o":"m 1010 0 l 840 0 l 840 810 l 583 0 l 496 0 l 238 810 l 238 0 l 102 0 l 102 926 l 363 926 l 557 330 l 747 926 l 1010 926 l 1010 0 z "},"N":{"ha":903,"x_min":102,"x_max":801,"o":"m 801 0 l 639 0 l 288 591 q 261 635 279 605 q 236 678 253 649 l 236 0 l 102 0 l 102 926 l 286 926 l 610 380 q 669 281 614 374 l 669 926 l 801 926 l 801 0 z "},"O":{"ha":894,"x_min":53,"x_max":840,"o":"m 443 -14 q 156 124 258 -14 q 53 466 53 262 q 162 804 53 668 q 450 940 271 940 q 735 804 631 940 q 840 464 840 668 q 731 118 840 250 q 443 -14 623 -14 m 444 120 q 597 195 534 120 q 659 465 659 269 q 608 715 659 625 q 448 806 556 806 q 233 460 233 806 q 288 207 233 293 q 444 120 342 120 z "},"P":{"ha":832,"x_min":102,"x_max":800,"o":"m 269 0 l 102 0 l 102 926 l 481 926 q 721 844 643 926 q 800 651 800 762 q 715 446 800 524 q 500 367 630 367 l 269 367 l 269 0 m 269 510 l 466 510 q 584 548 543 510 q 625 649 625 586 q 587 747 625 706 q 451 787 549 787 l 269 787 l 269 510 z "},"Q":{"ha":894,"x_min":53,"x_max":840,"o":"m 802 -50 l 802 -189 q 707 -195 722 -195 q 460 -16 502 -195 q 439 -18 450 -18 q 153 118 254 -18 q 53 463 53 255 q 156 804 53 667 q 447 940 260 940 q 664 876 583 940 q 792 709 745 812 q 840 465 840 605 q 643 39 840 168 l 612 19 l 612 4 q 632 -37 612 -20 q 689 -54 653 -54 q 762 -51 713 -54 q 802 -50 775 -50 m 442 121 q 659 463 659 121 q 601 725 659 645 q 448 806 543 806 q 233 454 233 806 q 442 121 233 121 z "},"R":{"ha":892,"x_min":102,"x_max":828,"o":"m 823 0 l 647 0 l 503 380 l 269 380 l 269 0 l 102 0 l 102 926 l 503 926 q 749 850 671 926 q 828 654 828 774 q 661 409 828 476 l 823 0 m 269 514 l 490 514 q 624 552 580 514 q 668 656 668 590 q 625 755 668 718 q 503 793 581 793 l 269 793 l 269 514 z "},"S":{"ha":793,"x_min":5,"x_max":752,"o":"m 5 243 l 166 243 q 391 120 196 120 q 527 155 479 120 q 575 243 575 191 q 553 313 575 281 q 460 363 532 345 l 283 410 q 149 464 193 433 q 80 549 106 494 q 54 666 54 604 q 146 865 54 790 q 382 940 238 940 q 595 888 501 940 q 715 706 689 836 l 556 706 q 385 806 519 806 q 266 773 307 806 q 225 690 225 741 q 354 579 225 611 l 511 540 q 703 434 654 504 q 752 279 752 363 q 649 64 752 142 q 383 -14 547 -14 q 142 43 245 -14 q 5 243 39 101 z "},"T":{"ha":671,"x_min":0,"x_max":671,"o":"m 425 0 l 246 0 l 246 783 l 0 783 l 0 926 l 671 926 l 671 783 l 425 783 l 425 0 z "},"U":{"ha":826,"x_min":93,"x_max":737,"o":"m 737 926 l 737 331 q 710 145 737 210 q 605 33 683 80 q 416 -14 528 -14 q 230 26 302 -14 q 125 138 157 67 q 93 319 93 209 l 93 926 l 263 926 l 263 331 q 314 171 263 209 q 420 132 366 132 q 524 173 477 132 q 571 331 571 214 l 571 926 l 737 926 z "},"V":{"ha":751,"x_min":3,"x_max":747,"o":"m 458 0 l 288 0 l 3 926 l 179 926 l 391 216 l 608 926 l 747 926 l 458 0 z "},"W":{"ha":1227,"x_min":14,"x_max":1213,"o":"m 1213 926 l 966 0 l 791 0 l 606 681 l 439 0 l 267 0 l 14 926 l 191 926 l 370 251 l 537 926 l 706 926 l 890 251 l 1066 926 l 1213 926 z "},"X":{"ha":787,"x_min":0,"x_max":779,"o":"m 779 0 l 585 0 l 380 365 l 183 0 l 0 0 l 252 482 l 0 926 l 214 926 l 378 618 l 546 926 l 751 926 l 493 503 l 779 0 z "},"Y":{"ha":755,"x_min":-18,"x_max":774,"o":"m 474 0 l 297 0 l 297 391 l -18 926 l 163 926 l 383 544 l 593 926 l 774 926 l 474 391 l 474 0 z "},"Z":{"ha":740,"x_min":28,"x_max":712,"o":"m 712 144 l 712 0 l 28 0 l 28 132 l 502 793 l 61 793 l 61 926 l 699 926 l 699 793 l 230 144 l 712 144 z "},"[":{"ha":408,"x_min":94,"x_max":327,"o":"m 327 814 l 214 814 l 214 -120 l 327 -120 l 327 -231 l 94 -231 l 94 926 l 327 926 l 327 814 z "},"\\":{"ha":665,"x_min":42,"x_max":744,"o":"m 42 926 l 141 926 l 744 -231 l 648 -231 l 42 926 z "},"]":{"ha":408,"x_min":81,"x_max":314,"o":"m 81 -120 l 194 -120 l 194 814 l 81 814 l 81 926 l 314 926 l 314 -231 l 81 -231 l 81 -120 z "},"^":{"ha":694,"x_min":15,"x_max":680,"o":"m 180 477 l 15 477 l 244 930 l 451 930 l 680 477 l 515 477 l 347 805 l 180 477 z "},"_":{"ha":694,"x_min":0,"x_max":694,"o":"m 0 -73 l 694 -73 l 694 -214 l 0 -214 l 0 -73 z "},"`":{"ha":694,"x_min":145,"x_max":456,"o":"m 190 1008 l 456 860 l 428 787 l 145 907 l 190 1008 z "},"a":{"ha":751,"x_min":50,"x_max":665,"o":"m 665 0 l 518 0 q 508 104 505 62 q 276 -14 446 -14 q 112 46 174 -14 q 50 197 50 106 q 464 433 50 433 q 508 432 480 433 l 508 484 q 363 590 508 590 q 203 484 222 590 l 71 483 q 159 644 82 589 q 383 699 237 699 q 513 686 463 699 q 597 641 563 673 q 645 573 632 610 q 659 448 659 536 l 659 138 q 665 0 652 71 m 508 335 q 208 205 208 349 q 238 133 208 163 q 330 102 269 102 q 463 202 418 150 q 508 326 508 255 l 508 335 z "},"b":{"ha":748,"x_min":93,"x_max":699,"o":"m 245 0 l 93 0 l 93 926 l 248 926 l 248 646 q 336 703 292 688 q 439 717 380 717 q 625 621 551 717 q 699 356 699 526 q 626 94 699 203 q 417 -14 553 -14 q 245 52 287 -14 l 245 0 m 275 289 q 314 156 275 199 q 417 113 354 113 q 519 162 478 113 q 564 355 561 212 q 526 517 564 460 q 421 574 489 574 q 316 525 357 574 q 275 389 275 477 l 275 289 z "},"c":{"ha":647,"x_min":49,"x_max":623,"o":"m 488 252 l 621 252 q 522 47 595 109 q 343 -14 448 -14 q 125 89 201 -14 q 49 342 49 193 q 132 598 49 497 q 355 699 216 699 q 623 445 578 699 l 488 445 q 363 572 471 572 q 249 504 284 572 q 213 337 213 435 q 250 177 213 233 q 353 121 287 121 q 488 252 455 121 z "},"d":{"ha":748,"x_min":49,"x_max":656,"o":"m 656 0 l 477 0 l 477 30 q 309 -14 438 -14 q 116 91 183 -14 q 49 352 49 196 q 119 605 49 497 q 317 713 189 713 q 501 667 450 713 l 501 926 l 656 926 l 656 0 m 474 404 q 441 534 474 488 q 345 581 408 581 q 238 521 277 581 q 199 342 199 461 q 343 113 199 113 q 437 162 400 113 q 474 288 474 212 l 474 404 z "},"e":{"ha":728,"x_min":49,"x_max":680,"o":"m 528 220 l 668 220 q 562 46 641 106 q 365 -14 484 -14 q 136 81 222 -14 q 49 340 49 177 q 136 597 49 496 q 374 699 224 699 q 600 599 520 699 q 680 341 680 498 l 680 323 l 210 323 q 223 212 210 254 q 275 138 236 170 q 374 107 315 107 q 528 220 488 107 m 519 423 q 474 544 518 497 q 366 591 431 591 q 260 547 302 591 q 210 423 217 503 l 519 423 z "},"f":{"ha":439,"x_min":15,"x_max":418,"o":"m 266 0 l 117 0 l 117 565 l 15 565 l 15 685 l 117 685 l 117 719 q 165 880 117 819 q 363 948 214 941 q 418 948 385 948 l 418 821 q 378 821 389 821 q 298 805 321 821 q 270 769 275 790 q 266 685 266 749 l 418 685 l 418 565 l 266 565 l 266 0 z "},"g":{"ha":720,"x_min":31,"x_max":606,"o":"m 584 700 l 515 616 q 550 494 550 575 q 486 343 550 403 q 317 283 422 283 q 239 294 272 283 q 199 254 212 279 q 201 218 192 236 q 249 208 210 201 l 420 208 q 556 154 507 208 q 606 20 606 100 q 531 -141 606 -77 q 308 -205 456 -205 q 31 -20 31 -205 q 114 119 31 72 q 60 219 60 174 q 152 334 60 281 q 73 493 73 392 q 131 639 73 578 q 309 699 189 699 q 420 682 363 699 l 496 772 l 584 700 m 311 396 q 417 504 417 396 q 391 573 417 545 q 314 602 364 602 q 235 572 262 602 q 207 498 207 543 q 235 424 207 452 q 311 396 262 396 m 204 71 q 170 19 170 47 q 198 -63 162 -28 q 336 -99 235 -99 q 486 -7 471 -85 q 459 44 486 26 q 400 61 433 61 l 262 61 q 204 71 224 61 z "},"h":{"ha":753,"x_min":92,"x_max":660,"o":"m 660 0 l 505 0 l 505 408 q 474 506 505 480 q 402 532 444 532 q 292 484 336 532 q 247 315 247 435 l 247 0 l 92 0 l 92 1041 l 247 1041 l 247 619 q 449 679 304 692 q 660 430 660 672 l 660 0 z "},"i":{"ha":340,"x_min":92,"x_max":247,"o":"m 247 765 l 92 765 l 92 926 l 247 926 l 247 765 m 247 0 l 92 0 l 92 685 l 247 685 l 247 0 z "},"j":{"ha":340,"x_min":-68,"x_max":247,"o":"m 247 765 l 92 765 l 92 926 l 247 926 l 247 765 m 247 685 l 247 11 q 12 -245 247 -245 q -68 -245 -24 -246 l -68 -117 q -18 -117 -39 -118 q 69 -85 46 -110 q 92 11 92 -61 l 92 685 l 247 685 z "},"k":{"ha":739,"x_min":93,"x_max":629,"o":"m 629 0 l 446 0 l 271 358 l 241 323 l 241 0 l 93 0 l 93 926 l 241 926 l 241 494 l 421 685 l 608 685 l 401 458 l 629 0 z "},"l":{"ha":340,"x_min":92,"x_max":247,"o":"m 247 0 l 92 0 l 92 926 l 247 926 l 247 0 z "},"m":{"ha":1208,"x_min":92,"x_max":1116,"o":"m 1116 0 l 954 0 l 954 427 q 836 539 933 539 q 726 472 767 532 q 685 312 685 412 l 685 0 l 521 0 l 521 427 q 410 541 494 541 q 297 470 343 534 q 252 312 252 406 l 252 0 l 92 0 l 92 685 l 242 685 l 242 587 q 471 699 315 699 q 667 587 622 699 q 896 699 750 699 q 1055 637 995 699 q 1116 484 1116 576 l 1116 0 z "},"n":{"ha":752,"x_min":93,"x_max":660,"o":"m 660 0 l 505 0 l 505 428 q 474 530 505 496 q 399 564 443 564 q 293 511 338 564 q 248 352 248 458 l 248 0 l 93 0 l 93 685 l 234 685 l 234 635 q 441 699 308 699 q 596 642 532 699 q 660 442 660 585 l 660 0 z "},"o":{"ha":734,"x_min":49,"x_max":686,"o":"m 361 -14 q 129 95 209 -14 q 49 345 49 204 q 137 598 49 497 q 371 699 226 699 q 597 601 509 699 q 686 345 686 503 q 594 84 686 183 q 361 -14 502 -14 m 366 113 q 522 343 522 113 q 485 507 522 447 q 370 567 448 567 q 252 505 290 567 q 213 340 213 443 q 254 172 213 230 q 366 113 295 113 z "},"p":{"ha":748,"x_min":93,"x_max":700,"o":"m 250 -231 l 93 -231 l 93 685 l 241 685 l 241 640 q 450 699 312 699 q 632 600 564 699 q 700 347 700 501 q 635 94 700 201 q 442 -14 570 -14 q 250 35 310 -21 l 250 -231 m 260 281 q 303 157 260 206 q 398 108 346 108 q 503 173 470 108 q 536 337 536 237 q 503 507 536 441 q 403 572 469 572 q 302 519 343 572 q 260 378 260 465 l 260 281 z "},"q":{"ha":752,"x_min":92,"x_max":699,"o":"m 542 -231 l 699 -231 l 699 685 l 551 685 l 551 633 q 342 699 480 699 q 160 600 228 699 q 92 347 92 501 q 157 94 92 201 q 350 -14 222 -14 q 542 35 482 -21 l 542 -231 m 532 281 q 489 157 532 206 q 394 108 446 108 q 289 173 322 108 q 256 337 256 237 q 290 507 256 441 q 389 572 323 572 q 490 519 449 572 q 532 378 532 465 l 532 281 z "},"r":{"ha":460,"x_min":93,"x_max":442,"o":"m 248 0 l 93 0 l 93 685 l 233 685 l 233 623 q 315 678 262 651 q 422 705 367 705 q 442 705 429 705 l 442 538 q 286 463 324 538 q 248 317 248 388 l 248 0 z "},"s":{"ha":631,"x_min":9,"x_max":598,"o":"m 9 184 l 156 184 q 301 102 188 102 q 445 186 445 102 q 422 231 445 214 q 370 255 400 249 l 245 279 q 37 481 37 319 q 103 636 37 572 q 299 699 169 699 q 564 526 516 699 l 427 526 q 303 589 405 589 q 180 512 180 589 q 279 438 180 458 l 427 408 q 598 211 598 372 q 510 42 598 98 q 300 -14 422 -14 q 115 28 195 -14 q 9 184 34 71 z "},"t":{"ha":448,"x_min":24,"x_max":410,"o":"m 410 148 l 410 0 q 303 0 341 0 q 196 17 241 0 q 131 78 151 35 q 110 210 110 121 l 110 565 l 24 565 l 24 685 l 119 685 l 119 875 l 260 875 l 260 685 l 397 685 l 397 565 l 260 565 l 260 231 q 283 160 260 173 q 372 148 307 148 q 410 148 390 148 z "},"u":{"ha":749,"x_min":93,"x_max":656,"o":"m 656 0 l 513 0 l 513 39 q 296 -14 454 -14 q 148 44 203 -14 q 93 205 93 102 l 93 685 l 251 685 l 251 239 q 283 142 251 165 q 347 119 316 119 q 450 164 397 119 q 502 356 502 209 l 502 685 l 656 685 l 656 0 z "},"v":{"ha":617,"x_min":9,"x_max":608,"o":"m 608 685 l 376 0 l 248 0 l 9 685 l 171 685 l 317 220 l 473 685 l 608 685 z "},"w":{"ha":968,"x_min":14,"x_max":954,"o":"m 954 685 l 753 0 l 614 0 l 490 480 l 368 0 l 224 0 l 14 685 l 178 685 l 306 224 l 424 685 l 571 685 l 684 224 l 817 685 l 954 685 z "},"x":{"ha":613,"x_min":0,"x_max":613,"o":"m 613 0 l 457 0 l 312 250 l 153 0 l 0 0 l 228 353 l 31 685 l 180 685 l 293 484 l 421 685 l 578 685 l 385 388 l 613 0 z "},"y":{"ha":614,"x_min":9,"x_max":604,"o":"m 604 685 l 365 -95 q 284 -207 340 -167 q 151 -246 229 -246 q 62 -246 121 -246 l 62 -120 l 136 -120 q 209 -104 185 -120 q 245 -47 232 -88 q 259 0 259 -7 q 245 42 259 4 l 9 685 l 158 685 l 317 233 l 460 685 l 604 685 z "},"z":{"ha":581,"x_min":33,"x_max":549,"o":"m 549 120 l 549 0 l 33 0 l 33 120 l 363 565 l 64 565 l 64 685 l 549 685 l 549 576 l 211 120 l 549 120 z "},"{":{"ha":408,"x_min":27,"x_max":365,"o":"m 146 347 q 230 186 230 305 l 230 -15 q 260 -110 230 -94 q 365 -127 290 -127 l 365 -231 l 304 -232 q 153 -187 200 -232 q 105 -37 105 -142 l 105 180 q 83 270 105 246 q 27 302 60 294 l 27 400 q 105 513 105 416 l 105 741 q 153 883 105 840 q 308 926 201 926 q 365 925 326 926 l 365 821 q 255 800 279 821 q 230 712 230 778 l 230 506 q 217 420 230 464 q 146 347 205 376 z "},"|":{"ha":694,"x_min":269,"x_max":426,"o":"m 269 926 l 426 926 l 426 -231 l 269 -231 l 269 926 z "},"}":{"ha":408,"x_min":43,"x_max":380,"o":"m 262 348 q 178 509 178 389 l 178 709 q 148 805 178 788 q 43 821 119 821 l 43 925 l 103 926 q 256 880 210 926 q 302 731 302 833 l 302 515 q 324 425 302 449 q 380 393 346 400 l 380 294 q 302 181 302 278 l 302 -46 q 254 -189 302 -145 q 100 -232 206 -232 q 43 -231 81 -232 l 43 -127 q 153 -105 128 -127 q 178 -18 178 -83 l 178 189 q 191 277 178 235 q 262 348 205 319 z "},"~":{"ha":814,"x_min":71,"x_max":744,"o":"m 158 334 l 71 391 q 162 536 114 497 q 275 575 210 575 q 422 536 323 575 q 547 500 513 500 q 654 578 612 500 l 744 525 q 528 348 667 348 q 361 397 489 348 q 264 423 292 423 q 158 334 200 423 z "}}}
